<svg id="visual" viewBox="0 0 900 200" width="900" height="200" xmlns="http://www.w3.org/2000/svg" xmlns:xlink="http://www.w3.org/1999/xlink" version="1.1"><path d="M0 76L129 72L257 57L386 80L514 68L643 50L771 75L900 56L900 0L771 0L643 0L514 0L386 0L257 0L129 0L0 0Z" fill="#17bebb"></path><path d="M0 61L129 66L257 53L386 49L514 41L643 46L771 44L900 39L900 0L771 0L643 0L514 0L386 0L257 0L129 0L0 0Z" fill="#1892a5"></path><path d="M0 45L129 50L257 50L386 39L514 53L643 50L771 40L900 36L900 0L771 0L643 0L514 0L386 0L257 0L129 0L0 0Z" fill="#2f6880"></path><path d="M0 33L129 24L257 35L386 22L514 27L643 21L771 26L900 18L900 0L771 0L643 0L514 0L386 0L257 0L129 0L0 0Z" fill="#304253"></path><path d="M0 12L129 15L257 11L386 17L514 15L643 12L771 19L900 7L900 0L771 0L643 0L514 0L386 0L257 0L129 0L0 0Z" fill="#202126"></path></svg>