<svg id="visual" viewBox="0 0 300 100" width="300" height="100" xmlns="http://www.w3.org/2000/svg" xmlns:xlink="http://www.w3.org/1999/xlink" version="1.1"><path d="M0 173L129 149L257 205L386 176L514 194L643 194L771 199L900 221L900 0L771 0L643 0L514 0L386 0L257 0L129 0L0 0Z" fill="#17bebb"></path><path d="M0 165L129 150L257 195L386 191L514 155L643 202L771 120L900 148L900 0L771 0L643 0L514 0L386 0L257 0L129 0L0 0Z" fill="#1892a5"></path><path d="M0 161L129 96L257 95L386 117L514 123L643 134L771 153L900 105L900 0L771 0L643 0L514 0L386 0L257 0L129 0L0 0Z" fill="#2f6880"></path><path d="M0 103L129 59L257 87L386 111L514 114L643 64L771 109L900 84L900 0L771 0L643 0L514 0L386 0L257 0L129 0L0 0Z" fill="#304253"></path><path d="M0 61L129 33L257 62L386 39L514 50L643 57L771 47L900 28L900 0L771 0L643 0L514 0L386 0L257 0L129 0L0 0Z" fill="#202126"></path></svg>